<svg width="60" height="60" viewBox="0 0 60 60" fill="none" xmlns="http://www.w3.org/2000/svg">
<path opacity="0.3" d="M55 52.5C52.225 52.5 50.675 51.575 49.55 50.9C48.625 50.35 48.05 50 46.675 50C45.275 50 44.725 50.325 43.8 50.9C42.65 51.575 41.125 52.5 38.35 52.5C35.575 52.5 34.025 51.575 32.9 50.9C31.975 50.35 31.4 50 30.025 50C28.625 50 28.075 50.325 27.15 50.9C26 51.575 24.45 52.5 21.675 52.5C18.9 52.5 17.35 51.575 16.225 50.9C15.3 50.325 14.725 50 13.35 50C11.975 50 11.4 50.325 10.475 50.9C9.325 51.575 7.775 52.5 5 52.5V47.5C6.4 47.5 6.95 47.175 7.875 46.6C9.025 45.925 10.575 45 13.35 45C16.125 45 17.675 45.925 18.8 46.6C19.725 47.175 20.275 47.5 21.675 47.5C23.075 47.5 23.625 47.175 24.55 46.6C25.7 45.925 27.25 45 30.025 45C32.8 45 34.35 45.925 35.475 46.6C36.4 47.15 36.975 47.5 38.35 47.5C39.725 47.5 40.3 47.175 41.225 46.6C42.35 45.925 43.9 45 46.675 45C49.45 45 51 45.925 52.125 46.6C53.05 47.175 53.6 47.5 55 47.5V52.5ZM55 41.25C52.225 41.25 50.675 40.325 49.55 39.65C48.625 39.1 48.05 38.75 46.675 38.75C45.275 38.75 44.725 39.075 43.8 39.65C42.675 40.325 41.125 41.25 38.35 41.25C35.575 41.25 34.025 40.325 32.9 39.65C31.975 39.1 31.4 38.75 30.025 38.75C28.625 38.75 28.075 39.075 27.15 39.65C26.025 40.325 24.475 41.25 21.7 41.25C18.925 41.25 17.375 40.325 16.25 39.65C15.325 39.1 14.75 38.75 13.375 38.75C12 38.75 11.425 39.075 10.5 39.65C9.325 40.325 7.775 41.25 5 41.25V36.25C6.4 36.25 6.95 35.925 7.875 35.35C9 34.675 10.55 33.75 13.325 33.75C16.1 33.75 17.65 34.675 18.775 35.35C19.7 35.9 20.275 36.25 21.65 36.25C23.05 36.25 23.6 35.925 24.525 35.35C25.65 34.675 27.2 33.75 29.975 33.75C32.75 33.75 34.3 34.675 35.425 35.35C36.35 35.9 36.925 36.25 38.3 36.25C39.675 36.25 40.25 35.925 41.175 35.35C42.3 34.675 43.85 33.75 46.625 33.75C49.4 33.75 50.95 34.675 52.075 35.35C53 35.9 53.575 36.25 54.95 36.25V41.25H55ZM21.675 30C23.075 30 23.625 29.675 24.55 29.1C25.7 28.425 27.25 27.5 30.025 27.5C32.8 27.5 34.35 28.425 35.475 29.1C36.4 29.65 36.975 30 38.35 30C39.725 30 40.3 29.675 41.225 29.1C41.525 28.925 41.875 28.725 42.25 28.525L26.2 12.5C22.325 8.62503 18.75 7.47503 12.5 7.50003V13.75C17.05 13.725 19.725 14.725 22.5 17.5L25 20L16.875 28.125C17.65 28.425 18.275 28.8 18.8 29.1C19.725 29.675 20.275 30 21.675 30Z" fill="black"/>
<path opacity="0.3" d="M41.25 20C44.7018 20 47.5 17.2018 47.5 13.75C47.5 10.2982 44.7018 7.5 41.25 7.5C37.7982 7.5 35 10.2982 35 13.75C35 17.2018 37.7982 20 41.25 20Z" fill="black"/>
<path d="M25 20L16.875 28.125C17.65 28.425 18.275 28.8 18.8 29.1C19.725 29.675 20.275 30 21.675 30C23.075 30 23.625 29.675 24.55 29.1C25.7 28.425 27.25 27.5 30.025 27.5C32.8 27.5 34.35 28.425 35.475 29.1C36.4 29.65 36.975 30 38.35 30C39.725 30 40.3 29.675 41.225 29.1C41.525 28.925 41.875 28.725 42.25 28.525L26.2 12.5C22.325 8.62503 18.75 7.47503 12.5 7.50003V13.75C17.05 13.725 19.725 14.725 22.5 17.5L25 20ZM13.375 38.75C14.75 38.75 15.325 39.1 16.25 39.65C17.375 40.325 18.925 41.25 21.7 41.25C24.475 41.25 26.025 40.325 27.15 39.65C28.075 39.075 28.625 38.75 30.025 38.75C31.4 38.75 31.975 39.1 32.9 39.65C34.025 40.325 35.575 41.25 38.35 41.25C41.125 41.25 42.675 40.325 43.8 39.65C44.725 39.075 45.275 38.75 46.675 38.75C48.05 38.75 48.625 39.1 49.55 39.65C50.675 40.325 52.2 41.225 54.95 41.25V36.25C53.575 36.25 53 35.9 52.075 35.35C50.95 34.675 49.4 33.75 46.625 33.75C43.85 33.75 42.3 34.675 41.175 35.35C40.25 35.925 39.675 36.25 38.3 36.25C36.925 36.25 36.35 35.9 35.425 35.35C34.3 34.675 32.75 33.75 29.975 33.75C27.2 33.75 25.65 34.675 24.525 35.35C23.6 35.925 23.05 36.25 21.65 36.25C20.275 36.25 19.7 35.9 18.775 35.35C17.65 34.675 16.1 33.75 13.325 33.75C10.55 33.75 9 34.675 7.875 35.35C6.95 35.925 6.4 36.25 5 36.25V41.25C7.775 41.25 9.325 40.325 10.5 39.65C11.425 39.075 12 38.75 13.375 38.75ZM46.675 45C43.9 45 42.35 45.925 41.225 46.6C40.3 47.175 39.725 47.5 38.35 47.5C36.975 47.5 36.4 47.15 35.475 46.6C34.35 45.925 32.8 45 30.025 45C27.25 45 25.7 45.925 24.55 46.6C23.625 47.175 23.075 47.5 21.675 47.5C20.275 47.5 19.725 47.175 18.8 46.6C17.675 45.925 16.125 45 13.35 45C10.575 45 9.025 45.925 7.875 46.6C6.95 47.175 6.4 47.5 5 47.5V52.5C7.775 52.5 9.325 51.575 10.475 50.9C11.4 50.325 11.975 50 13.35 50C14.725 50 15.3 50.325 16.225 50.9C17.35 51.575 18.9 52.5 21.675 52.5C24.45 52.5 26 51.575 27.15 50.9C28.075 50.325 28.625 50 30.025 50C31.4 50 31.975 50.35 32.9 50.9C34.025 51.575 35.575 52.5 38.35 52.5C41.125 52.5 42.65 51.575 43.8 50.9C44.725 50.325 45.275 50 46.675 50C48.05 50 48.625 50.35 49.55 50.9C50.675 51.575 52.225 52.5 55 52.5V47.5C53.6 47.5 53.05 47.175 52.125 46.6C51 45.925 49.45 45 46.675 45Z" fill="#DFAA5B"/>
<path d="M41.25 20C44.7018 20 47.5 17.2018 47.5 13.75C47.5 10.2982 44.7018 7.5 41.25 7.5C37.7982 7.5 35 10.2982 35 13.75C35 17.2018 37.7982 20 41.25 20Z" fill="#DFAA5B"/>
</svg>
