<?xml version="1.0" encoding="UTF-8"?>
<svg version="1.1" viewBox="0 0 2000 2000" width="500" height="500" xmlns="http://www.w3.org/2000/svg">
<path transform="translate(1065,679)" d="m0 0h22l16 3 12 5 9 7 8 9 4 7 18 8 37 15 34 12 16 4 21 2 16-1 13-4 9-7 5-6 1-2v-7l-4-4-7-1-7 3-4 7-2 5-3-2-1-7 4-8 5-4 2-1h13l9 4 4 6v9l-4 8-5 6-10 7-11 4-14 2h-9l-17-2-22-5-17-5 15 7 24 8 21 5 21 3 13 1h31l17-4 14-7 11-9 7-9 5-10 3-15v-9l-2-8-4-7-7-4h-9l-8 6-5 8v6h8l1 4-5 4-7 1-4-4-2-9 3-9 6-8 6-5 5-2h15l8 4 4 5 5 10 1 4v18l-4 14-7 13-10 11-11 8-12 6-13 4-5 1h-47l-26-4-22-6-22-8-27-13-23-13-23-12-9-4v8l-4 8-8 7-6 2h-12l-4-2-3-6-2-5-6 4-3 1h-9l-6-4-3-5v-6l4-5 4 2 2 10h7l6-5 1-7-4-8-8-5-7-2h-24l-15 4-14 7-11 7-7 5 1 9 2 6 1 13-3 9-3 3-6-1-4-6-1-11 4-16v-6l-11-8-21-11-9-3-6-1h-25l-9 3-6 4-3 5v7l4 6 4 2 6-1 2-10 5-1 3 5-1 8-4 5-4 2h-10l-7-4-1-1-5 9-7 4h-11l-6-3-7-8-3-6-1-7-15 6-22 12-15 9-16 8-19 9-29 9-20 4-25 3h-19l-22-2-16-4-14-7-12-10-7-10-7-15-2-7-1-14 2-12 5-10 7-6 5-2h13l8 3 8 7 5 10v11l-4 6-7 1-6-5v-4l9-1-2-10-6-7-7-3h-8l-8 6-3 7v23l5 13 9 12 9 8 16 8 15 4 9 1h25l25-2 24-5 18-6 22-10-18 5-19 4-16 2h-16l-11-3-10-5-10-9-4-8-1-9 3-6 8-6h14l6 3 4 5 1 4v9h-4l-4-10-5-4h-10l-5 5 1 7 4 6 9 8 14 5 17 1 18-2 19-5 27-9 60-24 10-13 10-9 12-6 12-3h34l17 4 17 8 13 11 10 11 2 3 4 1 2-5 7-8 7-7 20-12 11-4zm-157 6-14 3-11 6-8 7-4 6v2l15 4 8 4h2l8-16 12-6 11-2h13l14 2 16 6 2-1-5-4-18-8-12-3zm152 0-15 4-16 8-3 3 9-2 17-4 15-1 16 3 10 5 5 6 2 4 2 7 14-6 12-2-2-5-7-8-7-5-14-5-12-2zm-189 31-2 2 1 7 4 7 8 5h7l4-4v-6l-4-6-9-4zm254-1-10 3-6 4-3 4v7l1 3 2 1h7l8-5 4-5 1-3v-8zm-127 17-3 13v9l2 5 4-1 3-5v-9l-3-10-1-2z" fill="#8A6C32"/>
<path transform="translate(671,1221)" d="m0 0h32l23 2 28 6 20 7 18 8 23 12 23 13 19 10 5 1 4-11 7-8 8-4h12l6 5 2 5v3l9-5 7-1 8 3 4 5v8l-3 4-4-2-3-10-9 3-4 5 1 9 5 6 11 5 6 1h12l16-3 13-5 18-10 8-6-1-9-3-13v-7l3-8 3-3 5 1 4 4 2 5-1 12-2 8-2 4 1 5 5 5 15 9 17 8 8 2 9 1h13l11-3 6-4 5-6 1-6-3-5-5-4-5-1-3 4v6l-2 2-4-1-2-4v-6l6-7 8-2 9 3 4 2 5-8 3-3 3-1h11l8 4 6 7 3 9v4l19-9 22-12 24-13 28-12 19-6 29-6 16-2h37l15 3 12 5 13 7 12 11 7 10 6 13 2 10v15l-2 9-6 9-8 6-3 1h-12l-8-3-7-6-5-9-2-7 1-7 5-5 7 1 5 4-1 3-8 1-1 4 5 10 10 5h10l5-4 4-8 1-5v-15l-4-13-5-9-9-10-11-8-16-7-8-2-9-1-34 1-20 2-22 5-21 7-19 8 24-6 17-3 9-1h20l13 4 11 6 7 7 4 8v11l-6 7-8 3h-7l-9-3-5-6-1-7 2-6h3l3 11 5 3 7 1 5-2 3-3v-6l-5-10-4-2-10-6-13-3h-20l-18 3-19 6-20 7-41 16-19 8-8 11-8 8-10 6-11 4-17 2h-22l-15-3-16-7-12-8-12-12-7-9-9 10-13 13-15 9-13 5-14 2h-28l-16-4-14-8-8-8-8-11-25-11-32-12-31-11-23-5-7-1h-19l-13 3-9 5-5 5-5 6-1 4 2 5 4 3 8 1 6-3 3-6 2-7h2l2 5v6l-4 6-5 4-12 2-9-3-5-6-1-2v-9l4-8 6-7 10-6 14-5h23l26 4 17 5h2l-14-6-18-6-24-6-26-3h-38l-16 4-15 8-8 6-9 12-6 14-1 4v20l4 8 1 3 5 2 8 1 8-3 5-4 4-8-1-5-8-1v-3l8-6 4 1 4 5 1 9-3 8-6 8-7 5-7 2h-10l-7-3-5-4-6-12-2-9v-10l3-14 5-12 10-13 9-8 16-8 12-4zm328 20-2 1-2 7 1 10 4 8h2l3-12v-7l-2-6zm207 12m-323 10-7 4-6 9 1 7 6 1 11-4 5-4 1-2v-7l-3-4zm227-1-3 3-1 6 2 5 4 4 8 3h10v-8l-4-6-6-5zm-214 20-7 4-16 3-1 4 10 11 10 6 13 4 9 1h23l17-5 16-8 8-5-2-1-15 7-9 3-7 1h-16l-16-4-10-7-4-8-1-6zm207 1-4 9-6 7-12 6-4 1h-22l-17-4-12-5h-3l8 7 11 5 13 4 23 2 20-1 13-5 10-7 7-8 1-4-16-4-7-3z" fill="#8A6C32"/>
<path transform="translate(875,864)" d="m0 0 4 2 9 21 7 14 9 20 13 28 24 52 3-5 17-37 26-58 10-22 7-14 3-1 6 57 9 75 3 20 6 7 13 2v2h-49l2-2 8-3 1-2v-11l-9-98v-8l-3 3-10 22-16 36-18 40-8 21-3 6-3-3-5-12-15-32-11-24-17-37-7-15-1-2-2 16-7 81v19l10 4v1h-44v-2l12-2 5-3 3-9 6-47 7-62 4-35z" fill="#8A6C32"/>
<path transform="translate(1374,864)" d="m0 0 3 1 16 34 9 20 14 30 11 24 12 26 2 2 11-25 13-28 16-36 13-28 8-19 4 1 6 56 6 48 4 34 2 12 4 6 6 2 9 1v2h-48l2-2 7-3 1-2v-11l-8-89-2-18-7 15-18 40-13 29-11 25-7 20h-2l-14-30-13-28-18-39-9-20-4-8-2 16-6 70-2 21 1 9 9 4v1h-42v-2l11-2 5-3 3-9 5-39 9-76 3-31z" fill="#8A6C32"/>
<path transform="translate(542,867)" d="m0 0h65l15 3 12 6 7 8 5 10 2 9v12l-2 10-6 12-8 9-10 6-10 2 6 7 11 13 13 19 9 11 9 10 12 8 14 4-4 2h-12l-14-3-10-5-10-9-8-10-14-20-12-17-9-10-10-5v-2l19-1 10-3 8-5 7-8 3-9v-20l-3-10-4-6-1-3-12-6-5-1h-30v141l2 4 2 1v2l12 3v1h-49l1-2 9-2 5-4 2-7v-131l-3-6-6-4-8-3z" fill="#8A6C32"/>
<path transform="translate(1157,867)" d="m0 0h45v2l-10 3-4 2-1 2v101l2 12 4 10 9 12 10 7 10 4 3 1h20l13-4 11-7 8-9 6-12 2-14v-102l-7-4-8-2v-2h42v2l-10 3-4 4-2 106-3 13-5 10-9 10-7 6-10 5-15 4-9 1h-9l-14-2-13-5-10-6-9-9-7-12-3-9-1-5-1-18v-87l-3-5-11-4z" fill="#8A6C32"/>
<path transform="translate(402,867)" d="m0 0h61l14 2 10 4 9 7 7 9 4 11v21l-4 11-6 8-7 7-13 6-9 2h-11l-14-3-2-4h19l12-4 8-6 6-7 3-8 1-6v-10l-2-13-4-8-7-7-10-4-34-1 1 142 4 6 12 4v1h-49l1-2 9-2 5-4 1-3v-138l-4-5-11-4z" fill="#8A6C32"/>
<path transform="translate(797,864)" d="m0 0h4l1 27h-2l-5-12-2-3-3-1-51-1v71l45-1 4-8 2-6h1v37l-2-2-3-9-4-3-43-1v69l43-1 10-3 9-7 7-10 5-9h2l-1 6-12 30h-94v-2l11-3 4-4 1-21v-33l-1-87-5-4-10-4-1-2 77-1z" fill="#8A6C32"/>
<path transform="translate(1070,867)" d="m0 0h50v2l-11 4-5 6v138l4 5 5 2 8 2v1h-50l1-2 9-2 6-5 1-8v-91l-1-42-6-5-10-3z" fill="#8A6C32"/>
<path transform="translate(999,1291)" d="m0 0 3 3 3 11 6 10-1 4-3-1-2-3 2 5 5 10 9 8 2 1h6l2-4-2-6-12 1 2-5 4-4 6-1 5 3 4 6v9l-4 6-4 2h-9l-8-4h-3l-4 9-4 8-4-2-6-11-2-6-9 6-4 1h-7l-6-5-2-6 1-7 6-7 2-1h6l6 6v5l-6-3h-6l-1 8 2 3 6-1 8-7 6-8 1-5-4-1 1-4 5-8z" fill="#8A6C32"/>
<path transform="translate(998,640)" d="m0 0 4 2 6 14 2 3 10-5 7-1 6 3 4 5v8l-4 6-5 4-6-1-6-7v-2l5 1 6 1 2-3v-6l-2-2-7 1-8 7-5 9v4l3-1 1 4-6 10-4 14-3 1-4-15-5-8 1-5 4 1-6-12-10-9-7-1-2 2 1 9 7-1 3-2h3l-1 5-4 5-2 1h-6l-4-2-4-6-1-8 3-5 5-4 7-1 8 4 5 1 6-12z" fill="#8A6C32"/>
<path transform="translate(993,1104)" d="m0 0 1 4-8 17-2 7 4-1 5-5 4-5 7-13 5-4 2 2-8 19-4 12 6-4 10-11 2-3 2 1-6 9-5 6-6 4-4 1-9 13-9 8-4 2h-10l-4-2-1-6 4-6 7-4 12-4 8-1 3-9v-3l-2 3h-2l-1 3-3 1h-7l-1-1 1-10 6-14 5-5zm-7 39-13 4-8 7-2 3v3l2 1h8l8-6 8-10v-2z" fill="#8A6C32"/>
<path transform="translate(837,1081)" d="m0 0 5 1 1 1v6l-8 16-7 9-1-2 10-17 3-6v-4l-6 8-8 18-5 15v5l6 1h2l2-4 4-9h1l-1 7-4 6-5 3h-8l-2-1v-10l5-16 9-19z" fill="#8A6C32"/>
<path transform="translate(1193,1081)" d="m0 0 4 1-2 4-5 6-7 15-6 17v8h5l5-6 4-8 1 3-5 10-5 4h-10l-1-1v-10l6-18 8-17 6-7z" fill="#8A6C32"/>
<path transform="translate(1100,1105)" d="m0 0h5l4 5 1 4-3 8-4 6-2 5 6-2 4-4 3-7h2l-1 6-7 8-2 1h-7l-3-3v-7l7-2 3-8-1-5-3-1-6 5-5 10v7l4 4h-8l-3-3v-7l6-12 8-7z" fill="#8A6C32"/>
<path transform="translate(1140,1084)" d="m0 0 5 1-4 5h-2l-2 5-6 13-2 9-3 7-1 7 4 1 5-4 4-8h1v5l-7 9-2 1h-8l-2-2v-11l6-18 8-14 5-5z" fill="#8A6C32"/>
<path transform="translate(960,1097)" d="m0 0h4l-1 11h8l1 3-8 18v3l4-1 6-11h1l-1 7-6 7-2 1h-7l-1-2v-6l5-10v-6l-5 1-6 14-3 5-2 1 3-10 6-13z" fill="#8A6C32"/>
<path transform="translate(1247,1121)" d="m0 0h151v2h-151z" fill="#8A6C32"/>
<path transform="translate(601,1121)" d="m0 0h151l1 2h-151z" fill="#8A6C32"/>
<path transform="translate(1071,1083)" d="m0 0h4l-1 4-6 10-8 16-8 17-4 5-4 1 1-6 19-38z" fill="#8A6C32"/>
<path transform="translate(888,1107)" d="m0 0 6 1 4 5-4 12v6l1 1h5l6-9 2-4 1 4-5 9-4 3h-8l-7-5 3-10 2-8h-4l-6 8-2-1 8-11z" fill="#8A6C32"/>
<path transform="translate(1159,1105)" d="m0 0h6l3 5-1 2h-2l-1-4-5 2-6 7-4 10v5h9l5-6 2-6 2 1-1 5-4 6-3 3h-12l-3-3v-10l6-10 7-6z" fill="#8A6C32"/>
<path transform="translate(940,1105)" d="m0 0h4l-2 6-6 12-2 9 6-2 5-11 2 1-3 10-6 5h-7l-3-3-3-2 11-20z" fill="#8A6C32"/>
<path transform="translate(868,1105)" d="m0 0h3l-2 6-7 14-1 7 5-1 7-10 5-1-6 7-4 6-2 2h-8l-4-4 1-6 9-17z" fill="#8A6C32"/>
<path transform="translate(1072,1108)" d="m0 0h4l-1 4-8 17 1 3 4-1 6-11 2-1-2 8-5 7-2 1h-8l-2-2 1-8 5-11-2-1 5-4z" fill="#8A6C32"/>
<path transform="translate(924,1105)" d="m0 0h4l-1 5-7 14-2 8h6v2l-2 1h-7l-2-1v-7l5-13 5-8z" fill="#8A6C32"/>
<path transform="translate(853,1104)" d="m0 0h2l-1 6-7 14-2 8 5 1v2h-8l-2-1v-7l5-13 4-7z" fill="#8A6C32"/>
<path transform="translate(1197,1084)" d="m0 0 1 4-5 12-8 12-2 1 2-6 10-18z" fill="#8A6C32"/>
<path transform="translate(1143,1090)" d="m0 0 1 3-3 10-7 8-3 2 2-5 7-11z" fill="#8A6C32"/>
<path transform="translate(904,1105)" d="m0 0h4l-1 5-6 2 1-5z" fill="#8A6C32"/>
<path transform="translate(1163,1112)" d="m0 0h2l-2 4-6 5-5 1 2-3 5-3z" fill="#8A6C32"/>
<path transform="translate(884,1130)" d="m0 0 1 2-5 6-7 1 4-3z" fill="#8A6C32"/>
<path transform="translate(826,1114)" d="m0 0" fill="#8A6C32"/>
<path transform="translate(1182,1113)" d="m0 0" fill="#8A6C32"/>
<path transform="translate(1130,1113)" d="m0 0" fill="#8A6C32"/>
</svg>
